<?xml version="1.0"?><svg fill="#000000" xmlns="http://www.w3.org/2000/svg" viewBox="0 0 24 24" width="24px" height="24px">    <path d="M 9 3 C 7.895 3 7 3.895 7 5 L 7 6 L 4 6 C 2.895 6 2 6.895 2 8 L 2 19 C 2 20.105 2.895 21 4 21 L 20 21 C 21.105 21 22 20.105 22 19 L 22 8 C 22 6.895 21.105 6 20 6 L 17 6 L 17 5 C 17 3.895 16.105 3 15 3 L 9 3 z M 12 8 C 14.757 8 17 10.243 17 13 C 17 15.757 14.757 18 12 18 C 9.243 18 7 15.757 7 13 C 7 10.243 9.243 8 12 8 z M 19 8 C 19.552 8 20 8.448 20 9 C 20 9.552 19.552 10 19 10 C 18.448 10 18 9.552 18 9 C 18 8.448 18.448 8 19 8 z M 12 10 A 3 3 0 0 0 9 13 A 3 3 0 0 0 12 16 A 3 3 0 0 0 15 13 A 3 3 0 0 0 12 10 z"/></svg>