<?xml version="1.0" encoding="UTF-8"?>
<svg width="15px" height="15px" viewBox="0 0 15 15" version="1.1" xmlns="http://www.w3.org/2000/svg" xmlns:xlink="http://www.w3.org/1999/xlink">
    <title>Edit</title>
    <g stroke="none" stroke-width="1" fill="none" fill-rule="evenodd">
        <g transform="translate(-916.000000, -322.000000)" fill="#000">
            <g transform="translate(128.000000, 300.000000)">
                <g id="Edit" transform="translate(786.000000, 22.000000)">
                    <path d="M12.0661654,0.497680863 C12.7819549,-0.165893621 13.8045113,-0.165893621 14.5203008,0.497680863 L16.4631579,2.51502922 C17.1789474,3.1786037 17.1789474,4.2528161 16.4631579,4.91639058 L8.18045113,13.2837781 C7.87368421,13.5193061 7.66917293,13.6800795 7.26015038,13.7466418 L4.80601504,14.2596832 C4.1924812,14.372327 3.68120301,14.1982411 3.27218045,13.7957954 C2.86315789,13.3933498 2.65864662,12.8157942 2.76090226,12.2576953 L3.27218045,9.72832962 C3.37443609,9.40063852 3.47669173,9.10059635 3.78345865,8.86404433 L12.0661654,0.497680863 Z M4.80601504,10.7882055 L4.90827068,10.3386543 L6.64661654,12.1378833 L6.23759398,12.2290223 L4.39699248,12.5956268 L4.80601504,10.7882055 Z M7.97593985,11.0462623 L5.93082707,9.02891392 L12.0661654,2.89904223 L13.2932331,1.69784953 L14.1112782,2.51502922 L14.5203008,2.89904223 L15.3383459,3.71622191 L14.1112782,4.91639058 L7.97593985,11.0462623 Z" id="Shape-Copy"></path>
                </g>
            </g>
        </g>
    </g>
</svg>