<?xml version="1.0" encoding="UTF-8"?>
<svg width="17px" height="17px" viewBox="0 0 17 17" version="1.1" xmlns="http://www.w3.org/2000/svg" xmlns:xlink="http://www.w3.org/1999/xlink">
    <!-- Generator: Sketch 60 (88103) - https://sketch.com -->
    <title>Shape</title>
    <desc>Created with Sketch.</desc>
    <g id="CheckIns---User" stroke="none" stroke-width="1" fill="none" fill-rule="evenodd">
        <g id="CheckIns_Black" transform="translate(-910.000000, -1898.000000)" fill="#B4B0C8">
            <g id="Group-2-Copy" transform="translate(126.000000, 1871.000000)">
                <path d="M792.5,44 C787.789157,44 784,40.193663 784,35.499488 C784,30.8053129 787.789157,27 792.5,27 C797.210843,27 801,30.8053129 801,35.499488 C801,40.193663 797.210843,44 792.5,44 Z M792.5,28.6998976 C788.710843,28.6998976 785.638554,31.7443527 785.638554,35.499488 C785.638554,39.2556473 788.710843,42.2990784 792.5,42.2990784 C796.289157,42.2990784 799.259036,39.2556473 799.259036,35.499488 C799.259036,31.7443527 796.289157,28.6998976 792.5,28.6998976 Z M792.5,34.437564 C793.114458,34.437564 793.524096,34.9127161 793.524096,35.499488 L793.524096,38.8992832 C793.524096,39.4860551 793.114458,39.9622312 792.5,39.9622312 C791.885542,39.9622312 791.373494,39.4860551 791.373494,38.8992832 L791.373494,35.499488 C791.373494,34.9127161 791.885542,34.437564 792.5,34.437564 Z M792.5,31.249744 C791.885542,31.249744 791.373494,31.7259201 791.373494,32.312692 C791.373494,32.8994639 791.885542,33.374616 792.5,33.374616 C793.114458,33.374616 793.524096,32.8994639 793.524096,32.312692 C793.524096,31.7259201 793.114458,31.249744 792.5,31.249744 Z" id="Shape"></path>
            </g>
        </g>
    </g>
</svg>