<?xml version="1.0" encoding="UTF-8"?>
<svg width="14px" height="15px" viewBox="0 0 14 15" version="1.1" xmlns="http://www.w3.org/2000/svg" xmlns:xlink="http://www.w3.org/1999/xlink">
    <!-- Generator: Sketch 60 (88103) - https://sketch.com -->
    <title>Shape</title>
    <desc>Created with Sketch.</desc>
    <g id="CheckIns---User" stroke="none" stroke-width="1" fill="none" fill-rule="evenodd">
        <g id="CheckIns_Black" transform="translate(-874.000000, -1344.000000)" fill="#B5AFCA">
            <g id="Group-3" transform="translate(125.000000, 1212.000000)">
                <g id="Group-2-Copy-4" transform="translate(725.000000, 131.000000)">
                    <path d="M27.2520518,12.0911331 L27.7395308,12.206825 C28.1971641,12.3173977 28.6547974,12.0143465 28.7443344,11.5300788 C28.8338713,11.0447873 28.5354148,10.5625672 28.0678329,10.4519945 L25.6801809,9.88274958 C25.2523932,9.7803674 24.8246055,10.0312037 24.6952744,10.4642803 L24.03867,12.6009964 C23.8993903,13.0709306 24.1481041,13.5838653 24.5957889,13.7466529 C25.0434736,13.9104644 25.5309526,13.6616757 25.6702323,13.1927654 L25.7398722,12.9583102 C26.7446757,14.360946 28.0976786,15.2209563 29.1820706,15.6161515 C30.545022,16.1086098 32.5446806,16.2570639 34.4746994,15.2660045 C36.4047182,14.2708497 37.4990587,12.4781378 37.9367949,11.0734543 C38.0760746,10.6045439 37.8273609,10.0916092 37.3796761,9.92779773 C36.9220428,9.76398625 36.4445124,10.0127749 36.2952841,10.4816853 C35.9769305,11.5300788 35.1313037,12.8979047 33.6788154,13.6452946 C32.226327,14.3947321 30.7041988,14.2790403 29.7093438,13.9166074 C28.9433054,13.6391517 27.9882445,13.0412397 27.2520518,12.0911331 Z M33.9275291,6.54816206 C33.4599473,6.43758931 33.1614908,5.95434544 33.2510277,5.47007774 C33.3505132,4.98581004 33.798198,4.6827588 34.2657798,4.79333155 L34.7532588,4.90902341 C34.0071175,3.9589168 33.0620052,3.36100489 32.2959669,3.08354919 C31.2911633,2.72111628 29.7789836,2.60542442 28.3165467,3.35486196 C26.8640583,4.10122803 26.0184316,5.46905392 25.700078,6.51847123 C25.5607982,6.9873816 25.0733193,7.23514647 24.6256345,7.07235881 C24.1680012,6.90854733 23.9192874,6.39561262 24.0685157,5.92670225 C24.4963034,4.52201878 25.6005924,2.72930686 27.5306112,1.73415209 C29.46063,0.74309262 31.4602886,0.891546777 32.8132915,1.38298123 C33.907632,1.77920025 35.2506863,2.63921054 36.2554899,4.04184637 L36.3251298,3.80739118 C36.474358,3.33745699 36.9518885,3.08969212 37.3995732,3.2535036 C37.8572065,3.41629127 38.1059203,3.92922597 37.956692,4.39916017 L37.3100363,6.5358762 C37.1707566,6.96895281 36.7529174,7.21978915 36.3151812,7.11740697 L33.9275291,6.54816206 Z" id="Shape"></path>
                </g>
            </g>
        </g>
    </g>
</svg>