<?xml version="1.0" encoding="UTF-8"?>
<svg width="17px" height="15px" viewBox="0 0 17 15" version="1.1" xmlns="http://www.w3.org/2000/svg" xmlns:xlink="http://www.w3.org/1999/xlink">
    <!-- Generator: Sketch 61 (89581) - https://sketch.com -->
    <title>Shape</title>
    <desc>Created with Sketch.</desc>
    <g id="CheckIns---User" stroke="none" stroke-width="1" fill="none" fill-rule="evenodd">
        <g id="Employee_Home" transform="translate(-416.000000, -425.000000)" fill="#7033FF">
            <g id="Group-10" transform="translate(128.000000, 300.000000)">
                <g id="Group-5" transform="translate(200.000000, 116.000000)">
                    <path d="M100.493976,17.5436048 C100.801205,17.2404123 100.801205,16.7143431 100.493976,16.3679807 C100.186747,16.0216184 99.6746988,15.9864802 99.3674699,16.2896727 L97.3192771,17.9963858 L97.3192771,9.83327756 C97.3192771,9.37346898 96.9096386,9 96.5,9 C95.9879518,9 95.6807229,9.37346898 95.6807229,9.83327756 L95.6807229,17.9963858 L93.6325301,16.2896727 C93.3253012,15.9864802 92.7108434,16.0216184 92.4036145,16.3679807 C92.0963855,16.7143431 92.1987952,17.2404123 92.5060241,17.5436048 L95.8855422,20.4600763 C96.2951807,20.7351583 96.7048193,20.7351583 97.0120482,20.4600763 L100.493976,17.5436048 Z M89.6385542,19.8336122 C89.6385542,19.3727997 89.3313253,18.9993307 88.8192771,18.9993307 C88.4096386,18.9993307 88,19.3727997 88,19.8336122 L88,22.3334449 C88,23.253062 88.7168675,24 89.6385542,24 L103.259036,24 C104.180723,24 105,23.253062 105,22.3334449 L105,19.8336122 C105,19.3727997 104.590361,18.9993307 104.180723,18.9993307 C103.668675,18.9993307 103.259036,19.3727997 103.259036,19.8336122 L103.259036,22.3334449 L89.6385542,22.3334449 L89.6385542,19.8336122 Z" id="Shape"></path>
                </g>
            </g>
        </g>
    </g>
</svg>