<?xml version="1.0" encoding="UTF-8"?>
<svg width="17px" height="17px" viewBox="0 0 17 17" version="1.1" xmlns="http://www.w3.org/2000/svg" xmlns:xlink="http://www.w3.org/1999/xlink">
    <!-- Generator: Sketch 61 (89581) - https://sketch.com -->
    <title>Shape</title>
    <desc>Created with Sketch.</desc>
    <g id="StyleGuide-Reff" stroke="none" stroke-width="1" fill="none" fill-rule="evenodd">
        <g id="UI-Components" transform="translate(-881.000000, -600.000000)" fill="#F07575">
            <g id="Group-Copy" transform="translate(519.000000, 524.000000)">
                <g id="Group-7" transform="translate(471.000000, 84.500000) rotate(-90.000000) translate(-471.000000, -84.500000) translate(446.500000, -46.500000)">
                    <path d="M24.5,39 C19.7891566,39 16,35.193663 16,30.499488 C16,25.8053129 19.7891566,22 24.5,22 C29.2108434,22 33,25.8053129 33,30.499488 C33,35.193663 29.2108434,39 24.5,39 Z M24.5,23.6998976 C20.7108434,23.6998976 17.6385542,26.7443527 17.6385542,30.499488 C17.6385542,34.2556473 20.7108434,37.2990784 24.5,37.2990784 C28.2891566,37.2990784 31.2590361,34.2556473 31.2590361,30.499488 C31.2590361,26.7443527 28.2891566,23.6998976 24.5,23.6998976 Z M24.5,29.437564 C25.1144578,29.437564 25.5240964,29.9127161 25.5240964,30.499488 L25.5240964,33.8992832 C25.5240964,34.4860551 25.1144578,34.9622312 24.5,34.9622312 C23.8855422,34.9622312 23.373494,34.4860551 23.373494,33.8992832 L23.373494,30.499488 C23.373494,29.9127161 23.8855422,29.437564 24.5,29.437564 Z M24.5,26.249744 C23.8855422,26.249744 23.373494,26.7259201 23.373494,27.312692 C23.373494,27.8994639 23.8855422,28.374616 24.5,28.374616 C25.1144578,28.374616 25.5240964,27.8994639 25.5240964,27.312692 C25.5240964,26.7259201 25.1144578,26.249744 24.5,26.249744 Z" id="Shape" transform="translate(24.500000, 30.500000) rotate(-270.000000) translate(-24.500000, -30.500000) "></path>
                </g>
            </g>
        </g>
    </g>
</svg>