<?xml version="1.0" encoding="UTF-8"?>
<svg width="17px" height="13px" viewBox="0 0 17 13" version="1.1" xmlns="http://www.w3.org/2000/svg" xmlns:xlink="http://www.w3.org/1999/xlink">
    <!-- Generator: Sketch 61 (89581) - https://sketch.com -->
    <title>Shape</title>
    <desc>Created with Sketch.</desc>
    <g id="CheckIns---User" stroke="none" stroke-width="1" fill="none" fill-rule="evenodd">
        <g id="Employee_Home" transform="translate(-248.000000, -483.000000)" fill="#EE4C7C">
            <g id="Group-10" transform="translate(128.000000, 300.000000)">
                <path d="M122.548465,183 C121.146297,183 120,184.091409 120,185.437316 L120,193.562684 C120,194.908591 121.146297,196 122.548465,196 L134.451535,196 C135.853703,196 137,194.908591 137,193.562684 L137,185.437316 C137,184.091409 135.853703,183 134.451535,183 L122.548465,183 Z M121.780855,185.097658 C121.913907,184.818688 122.210716,184.624878 122.548465,184.624878 L134.451535,184.624878 C134.789284,184.624878 135.086093,184.818688 135.219145,185.097658 L129.016857,189.708004 C128.720048,189.936074 128.290187,189.936074 127.983143,189.708004 L121.780855,185.097658 Z M121.698977,187.09939 L121.698977,191.828176 L124.769416,189.38205 L121.698977,187.09939 Z M121.77062,193.88668 C121.903672,194.17446 122.200482,194.375122 122.548465,194.375122 L134.451535,194.375122 C134.799518,194.375122 135.096328,194.17446 135.22938,193.88668 L130.859121,190.402982 L130.060807,190.990287 C129.139675,191.675476 127.860325,191.675476 126.939193,190.990287 L126.140879,190.402982 L121.77062,193.88668 Z M135.301023,191.828176 L135.301023,187.09939 L132.230584,189.38205 L135.301023,191.828176 Z" id="Shape"></path>
            </g>
        </g>
    </g>
</svg>