<?xml version="1.0" encoding="UTF-8"?>
<svg width="18px" height="18px" viewBox="0 0 18 18" version="1.1" xmlns="http://www.w3.org/2000/svg" xmlns:xlink="http://www.w3.org/1999/xlink">
    <!-- Generator: Sketch 61.2 (89653) - https://sketch.com -->
    <title>Shape</title>
    <desc>Created with Sketch.</desc>
    <g id="CheckIns---User" stroke="none" stroke-width="1" fill="none" fill-rule="evenodd">
        <g id="CheckIns_Employee_Current-Check-in" transform="translate(-986.000000, -185.000000)" fill="#F07575">
            <g id="Group-7" transform="translate(1054.000000, 196.500000) rotate(-90.000000) translate(-1054.000000, -196.500000) translate(1026.000000, 114.000000)">
                <path d="M30.5,32 C25.7891566,32 22,28.193663 22,23.499488 C22,18.8053129 25.7891566,15 30.5,15 C35.2108434,15 39,18.8053129 39,23.499488 C39,28.193663 35.2108434,32 30.5,32 Z M30.5,16.6998976 C26.7108434,16.6998976 23.6385542,19.7443527 23.6385542,23.499488 C23.6385542,27.2556473 26.7108434,30.2990784 30.5,30.2990784 C34.2891566,30.2990784 37.2590361,27.2556473 37.2590361,23.499488 C37.2590361,19.7443527 34.2891566,16.6998976 30.5,16.6998976 Z M30.5,22.437564 C31.1144578,22.437564 31.5240964,22.9127161 31.5240964,23.499488 L31.5240964,26.8992832 C31.5240964,27.4860551 31.1144578,27.9622312 30.5,27.9622312 C29.8855422,27.9622312 29.373494,27.4860551 29.373494,26.8992832 L29.373494,23.499488 C29.373494,22.9127161 29.8855422,22.437564 30.5,22.437564 Z M30.5,19.249744 C29.8855422,19.249744 29.373494,19.7259201 29.373494,20.312692 C29.373494,20.8994639 29.8855422,21.374616 30.5,21.374616 C31.1144578,21.374616 31.5240964,20.8994639 31.5240964,20.312692 C31.5240964,19.7259201 31.1144578,19.249744 30.5,19.249744 Z" id="Shape" transform="translate(30.500000, 23.500000) rotate(-270.000000) translate(-30.500000, -23.500000) "></path>
            </g>
        </g>
    </g>
</svg>