<?xml version="1.0" encoding="UTF-8"?>
<svg width="36px" height="35px" viewBox="0 0 36 35" version="1.1" xmlns="http://www.w3.org/2000/svg" xmlns:xlink="http://www.w3.org/1999/xlink">
    <!-- Generator: Sketch 61 (89581) - https://sketch.com -->
    <title>Group 2</title>
    <desc>Created with Sketch.</desc>
    <g id="CheckIns---User" stroke="none" stroke-width="1" fill="none" fill-rule="evenodd">
        <g id="CheckIns_Employee_Current_After_Submission" transform="translate(-1130.000000, -324.000000)" fill="#FFCC40">
            <g id="success-copy-2" transform="translate(1110.000000, 305.000000)">
                <g id="Group" transform="translate(19.000000, 16.000000)">
                    <g id="Group-2">
                        <path d="M21.6832816,5.36656315 L35.8291796,33.6583592 C36.5701474,35.1402947 35.9694743,36.9423138 34.4875388,37.6832816 C34.0709725,37.8915647 33.6116333,38 33.145898,38 L4.85410197,38 C3.19724772,38 1.85410197,36.6568542 1.85410197,35 C1.85410197,34.5342647 1.96253724,34.0749255 2.17082039,33.6583592 L16.3167184,5.36656315 C17.0576862,3.88462765 18.8597053,3.28395461 20.3416408,4.02492236 C20.922223,4.31521346 21.3929905,4.78598094 21.6832816,5.36656315 Z" id="Triangle" fill-opacity="0.137893357"></path>
                        <path d="M19.5,18 C18.875,18 18.25,18.6052189 18.25,19.3325096 L18.5,25.3345854 C18.5,25.8922606 19,26.3330039 19.5,26.3330039 C20.125,26.3330039 20.5,25.8922606 20.5,25.3345854 L20.75,19.3325096 C20.75,18.6052189 20.25,18 19.5,18 Z M18,29.4991598 C18,28.6716418 18.75,27.9996046 19.5,27.9996046 C20.25,27.9996046 21,28.6716418 21,29.4991598 C21,30.3279628 20.25,31 19.5,31 C18.75,31 18,30.3279628 18,29.4991598 Z" id="Shape" stroke="#FFCC40" stroke-width="0.799999952"></path>
                    </g>
                </g>
            </g>
        </g>
    </g>
</svg>