<?xml version="1.0" encoding="UTF-8"?>
<svg width="217px" height="130px" viewBox="0 0 217 130" version="1.1" xmlns="http://www.w3.org/2000/svg" xmlns:xlink="http://www.w3.org/1999/xlink">
    <!-- Generator: Sketch 61.2 (89653) - https://sketch.com -->
    <title>Group 9</title>
    <desc>Created with Sketch.</desc>
    <defs>
        <linearGradient x1="50%" y1="0%" x2="50%" y2="100%" id="linearGradient-1">
            <stop stop-color="#7033FF" stop-opacity="0.193373033" offset="0%"></stop>
            <stop stop-color="#DBCBFF" stop-opacity="0" offset="100%"></stop>
        </linearGradient>
    </defs>
    <g id="CheckIns---User" stroke="none" stroke-width="1" fill="none" fill-rule="evenodd">
        <g id="Manager_MyTeam_No_Data_Found" transform="translate(-615.000000, -519.000000)">
            <g id="Group-15" transform="translate(536.000000, 507.000000)">
                <g id="Group-9" transform="translate(79.000000, 0.000000)">
                    <g id="Group-3">
                        <g id="Group-8" transform="translate(40.000000, 0.000000)" stroke="#E8E8E8">
                            <g id="Group-6" transform="translate(94.000000, 43.000000)">
                                <g id="Group-2" transform="translate(22.500000, 25.000000) rotate(-335.000000) translate(-22.500000, -25.000000) translate(7.000000, 5.000000)">
                                    <g id="50---File-(Outline)" transform="translate(0.201036, 0.233055)" stroke-linejoin="round" stroke-width="1.39999998">
                                        <polygon id="Path" fill="#FFFFFF" points="29.7444918 9.50471173 20.5978253 0.380573957 0.344492302 0.380573957 0.344492302 38.1805733 29.7444918 38.1805733"></polygon>
                                        <polygon id="Path" points="20.5978253 0.380573957 20.5978253 9.50471173 29.7444918 9.50471173"></polygon>
                                    </g>
                                    <circle id="Oval" stroke-width="1.18999998" cx="11.0072435" cy="15.5636995" r="1.64499997"></circle>
                                    <path d="M19.77179,25.5944745 C18.9689091,24.1944745 17.5779853,22.7944745 14.8717901,22.7944745 C12.1655948,22.7944745 10.7804815,24.1944745 9.97179016,25.5944745" id="Oval" stroke-width="1.39999998"></path>
                                    <circle id="Oval" stroke-width="1.18999998" cx="18.5464288" cy="15.5375682" r="1.64499997"></circle>
                                </g>
                            </g>
                            <g id="Group-6" transform="translate(22.500000, 68.000000) scale(-1, 1) translate(-22.500000, -68.000000) translate(0.000000, 43.000000)">
                                <g id="Group-2" transform="translate(22.500000, 25.000000) rotate(-335.000000) translate(-22.500000, -25.000000) translate(7.000000, 5.000000)">
                                    <g id="50---File-(Outline)" transform="translate(0.201036, 0.233055)" stroke-linejoin="round" stroke-width="1.39999998">
                                        <polygon id="Path" fill="#FFFFFF" points="29.7444918 9.50471173 20.5978253 0.380573957 0.344492302 0.380573957 0.344492302 38.1805733 29.7444918 38.1805733"></polygon>
                                        <polygon id="Path" points="20.5978253 0.380573957 20.5978253 9.50471173 29.7444918 9.50471173"></polygon>
                                    </g>
                                    <circle id="Oval" stroke-width="1.18999998" cx="11.0072435" cy="15.5636995" r="1.64499997"></circle>
                                    <path d="M19.77179,25.5944745 C18.9689091,24.1944745 17.5779853,22.7944745 14.8717901,22.7944745 C12.1655948,22.7944745 10.7804815,24.1944745 9.97179016,25.5944745" id="Oval" stroke-width="1.39999998"></path>
                                    <circle id="Oval" stroke-width="1.18999998" cx="18.5464288" cy="15.5375682" r="1.64499997"></circle>
                                </g>
                            </g>
                            <g id="Group-6" transform="translate(68.500000, 33.000000) scale(-1, 1) rotate(-30.000000) translate(-68.500000, -33.000000) translate(46.000000, 8.000000)">
                                <g id="Group-2" transform="translate(22.500000, 25.000000) rotate(-335.000000) translate(-22.500000, -25.000000) translate(7.000000, 5.000000)">
                                    <g id="50---File-(Outline)" transform="translate(0.201036, 0.233055)" stroke-linejoin="round" stroke-width="1.39999998">
                                        <polygon id="Path" fill="#FFFFFF" points="29.7444918 9.50471173 20.5978253 0.380573957 0.344492302 0.380573957 0.344492302 38.1805733 29.7444918 38.1805733"></polygon>
                                        <polygon id="Path" points="20.5978253 0.380573957 20.5978253 9.50471173 29.7444918 9.50471173"></polygon>
                                    </g>
                                    <circle id="Oval" stroke-width="1.18999998" cx="11.0072435" cy="15.5636995" r="1.64499997"></circle>
                                    <path d="M19.77179,25.5944745 C18.9689091,24.1944745 17.5779853,22.7944745 14.8717901,22.7944745 C12.1655948,22.7944745 10.7804815,24.1944745 9.97179016,25.5944745" id="Oval" stroke-width="1.39999998"></path>
                                    <circle id="Oval" stroke-width="1.18999998" cx="18.5464288" cy="15.5375682" r="1.64499997"></circle>
                                </g>
                            </g>
                        </g>
                        <g id="Group-10" transform="translate(79.000000, 87.000000)">
                            <g id="65---Folder-(Outline)" fill="#FFFFFF" stroke="#000000" stroke-linejoin="round" stroke-width="2">
                                <path d="M58.876569,53 L2.12343103,53 C0.950758621,53 0,52.0428235 0,50.8622353 L0,17 L61,17 L61,50.8622353 C61,52.0428235 60.0492414,53 58.876569,53 L58.876569,53 Z" id="Path"></path>
                                <path d="M27.3648103,9.41176471 L27.3648103,2.37529412 C27.3648103,1.06352941 26.4140517,0 25.2413793,0 L2.12343103,0 C0.950758621,0 0,1.06352941 0,2.37529412 L0,20 L61,20 L61,11.7870588 C61,10.4752941 60.0492414,9.41176471 58.876569,9.41176471 L27.3648103,9.41176471 L27.3648103,9.41176471 Z" id="Path"></path>
                            </g>
                            <rect id="Rectangle" fill="url(#linearGradient-1)" x="4" y="23.6970684" width="53" height="27" rx="2"></rect>
                        </g>
                        <g id="Group" transform="translate(0.000000, 140.000000)" stroke="#000000" stroke-linecap="round" stroke-linejoin="round" stroke-width="2">
                            <line x1="50.2391304" y1="0.5" x2="55.7608694" y2="0.5" id="Line"></line>
                            <line x1="59.5434783" y1="0.5" x2="215.456522" y2="0.5" id="Line"></line>
                            <line x1="1.02173913" y1="0.5" x2="45.9782609" y2="0.5" id="Line"></line>
                        </g>
                    </g>
                    <circle id="Oval" stroke="#E5D9FF" stroke-width="2" cx="6" cy="59" r="5"></circle>
                    <circle id="Oval" stroke="#E5D9FF" stroke-width="2" cx="194" cy="121" r="3"></circle>
                    <circle id="Oval" fill="#E5D9FF" cx="194.5" cy="28.5" r="2.5"></circle>
                    <path d="M209.428941,78.0644531 C208.417222,76.0520833 209.195217,75.0458984 211.762925,75.0458984 C214.330633,75.0458984 215.401923,73.6972656 214.976792,71" id="Path-3" stroke="#E5D9FF" stroke-width="2"></path>
                    <path d="M11.4289408,115.064453 C10.417222,113.052083 11.1952168,112.045898 13.7629252,112.045898 C16.3306335,112.045898 17.4019226,110.697266 16.9767923,108" id="Path-3" stroke="#E5D9FF" stroke-width="2"></path>
                </g>
            </g>
        </g>
    </g>
</svg>